<?xml version="1.0" standalone="no"?>
<!DOCTYPE svg PUBLIC "-//W3C//DTD SVG 20010904//EN"
 "http://www.w3.org/TR/2001/REC-SVG-20010904/DTD/svg10.dtd">
<svg version="1.0" xmlns="http://www.w3.org/2000/svg"
 width="260.000000pt" height="260.000000pt" viewBox="0 0 260.000000 260.000000"
 preserveAspectRatio="xMidYMid meet">
<metadata>
Created by potrace 1.11, written by Peter Selinger 2001-2013
</metadata>
<g transform="translate(0.000000,260.000000) scale(0.100000,-0.100000)"
fill="#000000" stroke="none">
<path d="M1048 2209 c-140 -39 -257 -131 -325 -254 l-22 -40 -78 -1 c-43 -1
-89 -4 -103 -7 -87 -18 -202 -89 -255 -158 -16 -22 -36 -46 -42 -54 -7 -7 -13
-19 -13 -25 0 -6 -7 -25 -16 -41 -23 -46 -26 -64 -28 -174 -1 -100 -1 -100
-36 -138 -19 -22 -44 -55 -55 -75 -11 -21 -23 -39 -26 -42 -14 -12 -36 -121
-37 -178 0 -79 12 -130 48 -206 52 -107 183 -211 293 -231 27 -5 55 -24 99
-66 51 -49 159 -118 170 -108 2 1 14 -4 28 -11 35 -19 198 -22 257 -4 64 19
153 62 153 73 0 11 14 9 55 -8 63 -26 130 -38 204 -34 42 1 83 4 91 6 32 7 96
30 108 40 9 7 32 1 80 -21 37 -17 81 -34 97 -37 59 -13 187 -13 236 0 48 13
131 49 158 70 38 29 120 114 137 143 11 20 38 44 64 57 44 23 66 38 114 80 32
28 106 125 118 155 45 112 50 131 54 215 6 163 -44 293 -155 405 -63 63 -163
124 -221 135 -27 5 -35 17 -66 91 -22 55 -27 62 -89 128 -40 42 -135 113 -135
100 0 -3 -6 -1 -14 5 -13 11 -25 15 -86 28 -14 3 -64 6 -112 7 l-86 1 -49 46
c-68 64 -153 111 -248 136 -57 15 -203 11 -267 -8z"/>
</g>
</svg>
